<svg xmlns="http://www.w3.org/2000/svg" viewBox="0 0 32 32" id="Flag-Iraq--Streamline-Twemoji" height="32" width="32">
  <desc>
    Flag Iraq Streamline Emoji: https://streamlinehq.com
  </desc>
  <path fill="#141414" d="M0 24c0 1.9635555555555555 1.5919999999999999 3.5555555555555554 3.5555555555555554 3.5555555555555554h24.888888888888886c1.9635555555555555 0 3.5555555555555554 -1.5919999999999999 3.5555555555555554 -3.5555555555555554v-3.5555555555555554H0v3.5555555555555554z" stroke-width="0.8889"></path>
  <path fill="#eeeeee" d="M0 11.555555555555555h32v8.88888888888889H0z" stroke-width="0.8889"></path>
  <path fill="#dd2e44" d="M28.444444444444443 4.444444444444445H3.5555555555555554C1.5919999999999999 4.444444444444445 0 6.036444444444444 0 8v3.5555555555555554h32V8c0 -1.9635555555555555 -1.5919999999999999 -3.5555555555555554 -3.5555555555555554 -3.5555555555555554z" stroke-width="0.8889"></path>
  <g fill="#007a3c">
    <path d="M9.979555555555555 16.05333333333333v1.0924444444444446h5.023111111111111v-0.6551111111111111c0 -0.29155555555555557 -0.32799999999999996 -0.2737777777777778 -0.32799999999999996 -0.05511111111111111v0.4906666666666667h-3.9315555555555552v-0.7644444444444444l2.757333333333333 -2.757333333333333 0.41866666666666663 0.4453333333333333 -2.502222222222222 2.529777777777778h2.6026666666666665s0.11822222222222223 -0.7644444444444444 0.8275555555555556 -0.7644444444444444l0.8106666666666666 0.5644444444444444v2.056888888888889h-7.315555555555555s-0.1822222222222222 0.9644444444444443 -1.2924444444444443 0.8364444444444443c0 0 0.7644444444444444 -0.5093333333333333 0.7644444444444444 -1.1102222222222222 0 -0.6 -0.4906666666666667 -1.0737777777777777 -0.4906666666666667 -1.0737777777777777l0.6915555555555556 -0.4364444444444444s0.07288888888888889 0.3733333333333333 0.14577777777777778 0.4817777777777778c0.07377777777777778 0.10844444444444444 0.3457777777777778 0.20888888888888887 0.3457777777777778 0.20888888888888887h0.9279999999999999l-0.012444444444444444 -0.48533333333333334 -0.13422222222222221 -0.057777777777777775 0.6915555555555556 -0.5466666666666666zm7.379555555555555 0.8906666666666666 -0.14755555555555555 0.20177777777777778h-0.4328888888888889c0.0017777777777777776 -1.023111111111111 0.005333333333333333 -3.038222222222222 -0.0008888888888888888 -3.0586666666666664 -0.008888888888888889 -0.027555555555555555 0.1911111111111111 -0.17244444444444443 0.1911111111111111 -0.17244444444444443l-0.8728888888888888 -0.4817777777777778v4.805333333333333h1.638222222222222l-0.37511111111111106 -1.2942222222222222zm4.851555555555556 -2.7466666666666666v2.9484444444444446h-0.4364444444444444V14.524444444444443l-0.5466666666666666 0.5466666666666666v2.0755555555555554h-0.4364444444444444v-1.7475555555555555l-0.5448888888888889 0.5466666666666666v0.005333333333333333l-0.11911111111111111 0.11288888888888889 0.11911111111111111 0.04622222222222222v0.4062222222222222c-0.5208888888888888 -0.26755555555555555 -1.0924444444444446 0.13777777777777778 -1.0924444444444446 0.6311111111111111v1.0915555555555554h3.6026666666666665V13.653333333333332l-0.5457777777777777 0.5439999999999999zm-2.279111111111111 2.9484444444444446h-0.031999999999999994c-0.21866666666666665 0 -0.1911111111111111 -0.29155555555555557 0.10933333333333332 -0.29155555555555557 0.1671111111111111 0 0.22044444444444444 0.08977777777777778 0.23733333333333334 0.16977777777777778v0.12177777777777778h-0.31466666666666665zm1.1688888888888889 -3.7404444444444445c0 0.1351111111111111 -0.04533333333333333 0.24622222222222223 -0.10044444444444445 0.24622222222222223 -0.05511111111111111 0 -0.09955555555555555 -0.11022222222222222 -0.09955555555555555 -0.24622222222222223 0 -0.13599999999999998 0.04533333333333333 -0.24533333333333335 0.09955555555555555 -0.24533333333333335 0.055999999999999994 0 0.10044444444444445 0.10933333333333332 0.10044444444444445 0.24533333333333335zm-0.9191111111111111 0.6639999999999999s0.16355555555555554 0.15555555555555553 0.4648888888888889 0.10933333333333332c0.30044444444444446 -0.04533333333333333 0.39999999999999997 -0.3182222222222222 0.39999999999999997 -0.3182222222222222s0.17244444444444443 0.28177777777777774 0.3635555555555555 0.23644444444444446c0.19199999999999998 -0.04533333333333333 0.3644444444444444 -0.3457777777777778 0.3644444444444444 -0.3457777777777778s0.008888888888888889 0.4817777777777778 -0.2737777777777778 0.5271111111111111c-0.28177777777777774 0.04533333333333333 -0.39999999999999997 -0.15466666666666665 -0.39999999999999997 -0.15466666666666665s-0.14577777777777778 0.21866666666666665 -0.41866666666666663 0.23644444444444446c-0.27288888888888885 0.01955555555555555 -0.5004444444444444 -0.2906666666666667 -0.5004444444444444 -0.2906666666666667zm4.394666666666667 2.848888888888889 -0.23555555555555555 0.22755555555555554h-0.3822222222222222v-3.103111111111111l0.22666666666666666 -0.10044444444444445 -0.8817777777777778 -0.5093333333333333v4.805333333333333h1.6462222222222223z" stroke-width="0.8889"></path>
    <path d="M9.525333333333332 18.784c0 0.12977777777777777 -0.10577777777777776 0.23644444444444446 -0.23733333333333334 0.23644444444444446 -0.12977777777777777 0 -0.23644444444444446 -0.10577777777777776 -0.23644444444444446 -0.23644444444444446 0 -0.13066666666666665 0.10666666666666666 -0.23733333333333334 0.23644444444444446 -0.23733333333333334 0.13155555555555554 0 0.23733333333333334 0.10577777777777776 0.23733333333333334 0.23733333333333334z" stroke-width="0.8889"></path>
  </g>
</svg>