<svg xmlns="http://www.w3.org/2000/svg" viewBox="0 0 32 32" id="Flag-Andorra--Streamline-Twemoji" height="32" width="32">
  <desc>
    Flag Andorra Streamline Emoji: https://streamlinehq.com
  </desc>
  <path fill="#d01c3a" d="M32 24c0 1.9635555555555555 -1.5919999999999999 3.5555555555555554 -3.5555555555555554 3.5555555555555554H3.5555555555555554c-1.9635555555555555 0 -3.5555555555555554 -1.5919999999999999 -3.5555555555555554 -3.5555555555555554V8c0 -1.9635555555555555 1.5919999999999999 -3.5555555555555554 3.5555555555555554 -3.5555555555555554h24.888888888888886c1.9635555555555555 0 3.5555555555555554 1.5919999999999999 3.5555555555555554 3.5555555555555554v16z" stroke-width="0.8889"></path>
  <path fill="#0020a8" d="M3.5555555555555554 4.444444444444445C1.5919999999999999 4.444444444444445 0 6.036444444444444 0 8v16c0 1.9635555555555555 1.5919999999999999 3.5555555555555554 3.5555555555555554 3.5555555555555554h7.111111111111111V4.444444444444445H3.5555555555555554z" stroke-width="0.8889"></path>
  <path fill="#fedf00" d="M10.666666666666666 4.444444444444445h10.666666666666666v23.11111111111111H10.666666666666666z" stroke-width="0.8889"></path>
  <path fill="#c7b37f" d="M20.475555555555555 17.458666666666666c-0.14133333333333334 -0.4195555555555555 -0.5004444444444444 -0.33955555555555555 -0.5004444444444444 -0.19999999999999998 0 0 -0.4791111111111111 -0.3466666666666667 -0.12 -0.9813333333333334 0 0 0.6986666666666667 0.08266666666666667 0.2995555555555556 -0.4568888888888889 0 0 0.5991111111111111 -0.33955555555555555 0.6186666666666666 -1.0382222222222222 0.01955555555555555 -0.6995555555555556 -0.7786666666666666 -1.1386666666666665 -1.1182222222222222 -0.8595555555555555 0 0 -0.020444444444444442 -0.2791111111111111 -0.15999999999999998 -0.2791111111111111s-0.21955555555555553 0.17955555555555555 -0.21955555555555553 0.17955555555555555 0.020444444444444442 -0.45955555555555555 0.31911111111111107 -0.7191111111111111c0.2995555555555556 -0.25955555555555554 0.918222222222222 -0.959111111111111 -0.3804444444444444 -1.3582222222222222 -1.2977777777777777 -0.3991111111111111 -1.3573333333333333 0.4204444444444444 -1.158222222222222 0.6 0 0 -0.31911111111111107 0.17866666666666667 -0.6791111111111111 0.1591111111111111 -0.3591111111111111 -0.018666666666666668 -0.10044444444444445 -0.4382222222222222 -0.020444444444444442 -0.6186666666666666 0.07999999999999999 -0.17955555555555555 0.020444444444444442 -0.8186666666666667 -0.4204444444444444 -0.7982222222222222 -0.43911111111111106 0.01955555555555555 -0.45955555555555555 0.19999999999999998 -0.6186666666666666 0.25955555555555554 -0.15733333333333333 0.058666666666666666 -0.3173333333333333 0.018666666666666668 -0.3173333333333333 0.018666666666666668s-0.15999999999999998 0.039999999999999994 -0.31999999999999995 -0.020444444444444442c-0.1591111111111111 -0.059555555555555556 -0.17955555555555555 -0.2391111111111111 -0.6186666666666666 -0.25955555555555554 -0.43999999999999995 -0.020444444444444442 -0.4995555555555556 0.6186666666666666 -0.4195555555555555 0.7982222222222222 0.07999999999999999 0.18044444444444444 0.33955555555555555 0.6 -0.020444444444444442 0.6186666666666666 -0.3591111111111111 0.01955555555555555 -0.6791111111111111 -0.1591111111111111 -0.6791111111111111 -0.1591111111111111 0.19999999999999998 -0.17955555555555555 0.13955555555555554 -0.9991111111111112 -1.158222222222222 -0.6 -1.2977777777777777 0.3991111111111111 -0.6791111111111111 1.0986666666666667 -0.37955555555555553 1.3582222222222222 0.2995555555555556 0.25955555555555554 0.31999999999999995 0.7191111111111111 0.31999999999999995 0.7191111111111111s-0.07999999999999999 -0.17955555555555555 -0.22044444444444444 -0.17955555555555555c-0.13955555555555554 0 -0.1591111111111111 0.2791111111111111 -0.1591111111111111 0.2791111111111111 -0.33955555555555555 -0.2791111111111111 -1.1386666666666665 0.15999999999999998 -1.119111111111111 0.8595555555555555 0.020444444444444442 0.6986666666666667 0.6195555555555555 1.0382222222222222 0.6195555555555555 1.0382222222222222 -0.39999999999999997 0.5386666666666666 0.2995555555555556 0.4568888888888889 0.2995555555555556 0.4568888888888889 0.3591111111111111 0.6355555555555555 -0.12 0.9813333333333334 -0.12 0.9813333333333334 0 -0.13955555555555554 -0.3591111111111111 -0.21955555555555553 -0.5013333333333333 0.19999999999999998 -0.14133333333333334 0.4195555555555555 0.28088888888888885 0.5591111111111111 0.28088888888888885 0.5591111111111111 -0.5591111111111111 0.72 -0.19999999999999998 1.398222222222222 0.33955555555555555 1.797333333333333 0.5395555555555556 0.3991111111111111 1.5777777777777775 0.34044444444444444 2.0968888888888886 0.37955555555555553 0.5191111111111111 0.039999999999999994 0.6195555555555555 0.2995555555555556 0.6195555555555555 0.2995555555555556 -0.3991111111111111 0.3804444444444444 0.19999999999999998 0.6799999999999999 0.19999999999999998 0.6799999999999999 0.12 0.3991111111111111 0.5991111111111111 -0.039999999999999994 0.5991111111111111 -0.039999999999999994l0.34044444444444444 0.30044444444444446 0.33955555555555555 -0.2995555555555556s0.48 0.43911111111111106 0.5991111111111111 0.039999999999999994c0 0 0.6 -0.2995555555555556 0.19999999999999998 -0.6799999999999999 0 0 0.10044444444444445 -0.25955555555555554 0.6195555555555555 -0.2995555555555556 0.5191111111111111 -0.0391111111111111 1.558222222222222 0.01955555555555555 2.0968888888888886 -0.37955555555555553 0.5386666666666666 -0.3991111111111111 0.8986666666666665 -1.0782222222222222 0.33955555555555555 -1.797333333333333 0 0.0008888888888888888 0.42222222222222217 -0.13955555555555554 0.28088888888888885 -0.5582222222222222z" stroke-width="0.8889"></path>
  <path fill="#d01c3a" d="M15.84 15.680888888888887v-2.6364444444444444h-2.6364444444444444v2.6364444444444444h2.6364444444444444z" stroke-width="0.8889"></path>
  <path fill="#fedf00" d="m14.162666666666667 14.671999999999999 -0.7839999999999999 0.8088888888888889 0.12266666666666667 0.13955555555555554 0.6613333333333333 -0.7288888888888888zm1.288 -1.0284444444444445s0.34755555555555556 0.09066666666666666 0.34755555555555556 -0.21955555555555553 -0.208 -0.3102222222222222 -0.2773333333333333 -0.3102222222222222c-0.07022222222222221 0 -0.3893333333333333 0.050666666666666665 -0.39999999999999997 0.17955555555555555 -0.009777777777777776 0.12977777777777777 0.12533333333333332 0.20977777777777776 0.05244444444444444 0.27999999999999997 -0.072 0.06933333333333333 -0.26844444444444443 0.24266666666666667 -0.26844444444444443 0.24266666666666667l0.11644444444444445 0.13866666666666666s0.1671111111111111 -0.13866666666666666 0.2995555555555556 -0.33155555555555555c0.06755555555555555 -0.09777777777777777 0.015999999999999997 -0.33599999999999997 0.07999999999999999 -0.3502222222222222 0.18933333333333333 -0.0391111111111111 0.25955555555555554 0.050666666666666665 0.2497777777777778 0.12088888888888889 -0.009777777777777776 0.06933333333333333 -0.12977777777777777 0.13955555555555554 -0.12977777777777777 0.13955555555555554l-0.07022222222222221 0.11022222222222222z" stroke-width="0.8889"></path>
  <path fill="#ffffff" d="M14.801777777777778 15.03111111111111s0.049777777777777775 0.36977777777777776 0.22933333333333333 0.3893333333333333c0.17955555555555555 0.01955555555555555 0.24 -0.5742222222222222 0.5342222222222222 -0.5742222222222222 0.2951111111111111 0 0.3244444444444444 0.5146666666666666 0 0.5946666666666667l-0.044444444444444446 -0.14933333333333335s0.20977777777777776 -0.20977777777777776 0.059555555555555556 -0.2408888888888889c-0.14933333333333335 -0.029333333333333333 -0.21955555555555553 0.15999999999999998 -0.2391111111111111 0.2408888888888889 -0.020444444444444442 0.07999999999999999 -0.14044444444444443 0.28888888888888886 -0.31999999999999995 0.28888888888888886 -0.2995555555555556 0 -0.33955555555555555 -0.27466666666666667 -0.3848888888888889 -0.4862222222222222 -0.044444444444444446 -0.21244444444444444 0.16533333333333333 -0.0631111111111111 0.16533333333333333 -0.0631111111111111zm-0.5333333333333333 0s-0.049777777777777775 0.36977777777777776 -0.23022222222222222 0.3893333333333333c-0.17955555555555555 0.01955555555555555 -0.24 -0.5742222222222222 -0.5342222222222222 -0.5742222222222222 -0.2951111111111111 0 -0.3253333333333333 0.5146666666666666 0 0.5946666666666667l0.044444444444444446 -0.14933333333333335s-0.20977777777777776 -0.20977777777777776 -0.059555555555555556 -0.2408888888888889c0.14933333333333335 -0.029333333333333333 0.21955555555555553 0.15999999999999998 0.2391111111111111 0.2408888888888889 0.020444444444444442 0.07999999999999999 0.13955555555555554 0.28888888888888886 0.31911111111111107 0.28888888888888886 0.2995555555555556 0 0.33955555555555555 -0.27466666666666667 0.3848888888888889 -0.4862222222222222 0.04622222222222222 -0.21244444444444444 -0.16355555555555554 -0.0631111111111111 -0.16355555555555554 -0.0631111111111111z" stroke-width="0.8889"></path>
  <path fill="#ffffff" d="m14.572444444444443 13.153777777777776 0.7688888888888888 0.9786666666666666 -0.3848888888888889 1.0488888888888888s-0.15466666666666665 -0.09066666666666666 -0.3848888888888889 -0.09066666666666666 -0.4097777777777778 0.09066666666666666 -0.4097777777777778 0.09066666666666666l-0.40888888888888886 -1.0586666666666666 0.8195555555555556 -0.9688888888888889z" stroke-width="0.8889"></path>
  <path fill="#fedf00" d="m14.636444444444445 13.493333333333332 0.5368888888888889 0.6444444444444444 -0.27199999999999996 0.824 -0.25955555555555554 -0.07999999999999999zm-0.1768888888888889 0 -0.5368888888888889 0.6444444444444444 0.27199999999999996 0.824 0.25955555555555554 -0.07999999999999999zm-1.256 2.4266666666666663v1.638222222222222c0 1.0791111111111111 0.7875555555555556 1.2275555555555555 1.4648888888888887 1.0791111111111111 0.5457777777777777 -0.12088888888888889 1.1715555555555555 0 1.1715555555555555 0V15.92h-2.6364444444444444z" stroke-width="0.8889"></path>
  <path d="m14.668444444444443 18.63733333333333 0.05333333333333333 -0.010666666666666666V15.92h-0.39999999999999997v2.7626666666666666c0.11644444444444445 -0.0044444444444444444 0.2328888888888889 -0.021333333333333333 0.3466666666666667 -0.04533333333333333zm0.8524444444444443 -0.040888888888888884V15.92h-0.39999999999999997v2.664888888888889c0.14666666666666667 -0.0044444444444444444 0.28444444444444444 0.0017777777777777776 0.39999999999999997 0.011555555555555555zm-1.5982222222222222 0.051555555555555556V15.92h-0.3991111111111111v2.525333333333333c0.11288888888888889 0.10222222222222221 0.25066666666666665 0.16799999999999998 0.3991111111111111 0.20266666666666666z" fill="#d01c3a" stroke-width="0.8889"></path>
  <path fill="#fedf00" d="M16.16 15.680888888888887v-2.6364444444444444h2.6364444444444444v2.6364444444444444H16.16z" stroke-width="0.8889"></path>
  <path fill="#d01c3a" d="M16.479111111111113 13.044444444444444h0.39999999999999997v2.6364444444444444h-0.39999999999999997zm0.7991111111111111 0h0.39999999999999997v2.6364444444444444h-0.39999999999999997zm0.7991111111111111 0h0.3991111111111111v2.6364444444444444h-0.3991111111111111z" stroke-width="0.8889"></path>
  <path fill="#fedf00" d="M18.796444444444443 15.92v1.638222222222222c0 1.0791111111111111 -0.7875555555555556 1.2275555555555555 -1.4648888888888887 1.0791111111111111 -0.5457777777777777 -0.12088888888888889 -1.1715555555555555 0 -1.1715555555555555 0V15.92h2.6364444444444444z" stroke-width="0.8889"></path>
  <path fill="#d01c3a" d="m16.55911111111111 16.359111111111112 0.2497777777777778 -0.19999999999999998h0.3093333333333333v0.1608888888888889s0.43999999999999995 -0.007111111111111111 0.7991111111111111 -0.043555555555555556c0.3591111111111111 -0.037333333333333336 0.4693333333333333 0.2328888888888889 0.3591111111111111 0.3022222222222222 -0.10933333333333332 0.07022222222222221 0.01955555555555555 0.34044444444444444 0 0.4693333333333333 -0.01955555555555555 0.12977777777777777 -0.25955555555555554 0.31911111111111107 -0.19999999999999998 0.20977777777777776 0.059555555555555556 -0.11022222222222222 0 -0.4097777777777778 0 -0.4097777777777778s-0.06933333333333333 0.23022222222222222 -0.12977777777777777 0.2995555555555556c-0.060444444444444446 0.07022222222222221 -0.2702222222222222 0.07999999999999999 -0.1902222222222222 0.020444444444444442s0.15999999999999998 -0.18933333333333333 0.08977777777777778 -0.25955555555555554c-0.06933333333333333 -0.06933333333333333 -0.38311111111111107 -0.07999999999999999 -0.39644444444444443 -0.049777777777777775 -0.012444444444444444 0.029333333333333333 -0.072 0.37866666666666665 -0.11199999999999999 0.3991111111111111 -0.040888888888888884 0.01955555555555555 -0.09066666666666666 -0.030222222222222223 -0.060444444444444446 -0.13955555555555554 0.030222222222222223 -0.11022222222222222 0 -0.2995555555555556 0 -0.2995555555555556s-0.20888888888888887 -0.010666666666666666 -0.19999999999999998 0.07999999999999999c0.010666666666666666 0.08977777777777778 0.10044444444444445 0.12977777777777777 0.08088888888888889 0.19999999999999998 -0.020444444444444442 0.06933333333333333 -0.15022222222222223 0.15999999999999998 -0.15999999999999998 0.039999999999999994 -0.010666666666666666 -0.12 -0.20977777777777776 -0.19999999999999998 -0.12 -0.25955555555555554 0.08977777777777778 -0.059555555555555556 0.18044444444444444 -0.15377777777777776 0.18044444444444444 -0.15377777777777776s-0.11288888888888889 -0.025777777777777778 -0.19199999999999998 -0.13599999999999998c-0.07999999999999999 -0.10933333333333332 -0.14755555555555555 -0.09955555555555555 -0.3075555555555555 -0.09955555555555555 -0.07999999999999999 0 0 -0.13066666666666665 0 -0.13066666666666665zm0 1.199111111111111 0.2497777777777778 -0.19999999999999998h0.3093333333333333v0.15999999999999998s0.43999999999999995 -0.006222222222222222 0.7991111111111111 -0.043555555555555556c0.3591111111111111 -0.036444444444444446 0.4693333333333333 0.2328888888888889 0.3591111111111111 0.3031111111111111 -0.10933333333333332 0.07022222222222221 0.01955555555555555 0.33955555555555555 0 0.4693333333333333 -0.01955555555555555 0.12977777777777777 -0.25955555555555554 0.3182222222222222 -0.19999999999999998 0.20977777777777776 0.059555555555555556 -0.11022222222222222 0 -0.4097777777777778 0 -0.4097777777777778s-0.06933333333333333 0.22933333333333333 -0.12977777777777777 0.2995555555555556c-0.060444444444444446 0.07022222222222221 -0.2702222222222222 0.07999999999999999 -0.1902222222222222 0.01955555555555555 0.07999999999999999 -0.059555555555555556 0.15999999999999998 -0.1902222222222222 0.08977777777777778 -0.25955555555555554 -0.06933333333333333 -0.06933333333333333 -0.38311111111111107 -0.07999999999999999 -0.39644444444444443 -0.050666666666666665 -0.012444444444444444 0.030222222222222223 -0.072 0.37955555555555553 -0.11199999999999999 0.39999999999999997 -0.040888888888888884 0.018666666666666668 -0.09066666666666666 -0.030222222222222223 -0.060444444444444446 -0.14044444444444443 0.030222222222222223 -0.10933333333333332 0 -0.2995555555555556 0 -0.2995555555555556s-0.20888888888888887 -0.009777777777777776 -0.19999999999999998 0.07999999999999999c0.010666666666666666 0.08977777777777778 0.10044444444444445 0.12977777777777777 0.08088888888888889 0.19999999999999998 -0.020444444444444442 0.07022222222222221 -0.15022222222222223 0.1608888888888889 -0.15999999999999998 0.039999999999999994 -0.010666666666666666 -0.11911111111111111 -0.20977777777777776 -0.19999999999999998 -0.12 -0.25955555555555554 0.08977777777777778 -0.059555555555555556 0.18044444444444444 -0.15377777777777776 0.18044444444444444 -0.15377777777777776s-0.11288888888888889 -0.025777777777777778 -0.19199999999999998 -0.1351111111111111c-0.07999999999999999 -0.11022222222222222 -0.14755555555555555 -0.09955555555555555 -0.3075555555555555 -0.09955555555555555 -0.07999999999999999 0 0 -0.12977777777777777 0 -0.12977777777777777z" stroke-width="0.8889"></path>
  <path fill="#af9167" d="M13.003555555555554 18.836444444444442c0 0.029333333333333333 1.4684444444444442 0.4284444444444444 1.6328888888888888 0.45955555555555555 0.16533333333333333 0.029333333333333333 0.10488888888888888 0.3688888888888889 -0.11466666666666667 0.34933333333333333 -0.21955555555555553 -0.018666666666666668 -1.3084444444444443 -0.25866666666666666 -1.448 -0.32888888888888884 -0.13955555555555554 -0.07111111111111111 -0.07022222222222221 -0.48 -0.07022222222222221 -0.48zm2.017777777777778 0.49422222222222223s0.43999999999999995 0.059555555555555556 0.8186666666666667 0.07555555555555556c0.37955555555555553 0.015111111111111112 0.6391111111111111 -0.017777777777777778 0.6391111111111111 -0.017777777777777778l0.2702222222222222 0.36622222222222217s-0.4693333333333333 0.050666666666666665 -0.7893333333333333 0.050666666666666665c-0.31911111111111107 0 -0.839111111111111 -0.050666666666666665 -0.839111111111111 -0.050666666666666665l-0.09955555555555555 -0.42399999999999993zm1.9173333333333333 0s0.6293333333333333 -0.11466666666666667 1.0097777777777777 -0.20533333333333334c0.37955555555555553 -0.08977777777777778 0.8782222222222221 -0.2693333333333333 1.008888888888889 -0.28888888888888886 0.12977777777777777 -0.020444444444444442 0.21955555555555553 0.2142222222222222 0.25866666666666666 0.24622222222222223l0.039999999999999994 0.032888888888888884s-0.6586666666666666 0.3093333333333333 -0.9786666666666666 0.3991111111111111c-0.31911111111111107 0.09066666666666666 -1.3386666666666667 0.23022222222222222 -1.3386666666666667 0.23022222222222222s-0.14577777777777778 -0.38755555555555554 0 -0.4142222222222222z" stroke-width="0.8889"></path>
</svg>