<svg xmlns="http://www.w3.org/2000/svg" viewBox="0 0 32 32" id="Flag-Finland--Streamline-Twemoji" height="32" width="32">
  <desc>
    Flag Finland Streamline Emoji: https://streamlinehq.com
  </desc>
  <path fill="#edecec" d="M28.444444444444443 4.444444444444445H16v8.88888888888889h16V8c0 -1.9635555555555555 -1.5919999999999999 -3.5555555555555554 -3.5555555555555554 -3.5555555555555554z" stroke-width="0.8889"></path>
  <path fill="#eeeeee" d="M9.777777777777777 4.444444444444445H3.5555555555555554C1.5919999999999999 4.444444444444445 0 6.036444444444444 0 8v5.333333333333333h9.777777777777777V4.444444444444445z" stroke-width="0.8889"></path>
  <path fill="#edecec" d="M28.444444444444443 27.555555555555554H16V18.666666666666664h16v5.333333333333333c0 1.9635555555555555 -1.5919999999999999 3.5555555555555554 -3.5555555555555554 3.5555555555555554zm-18.666666666666664 0H3.5555555555555554c-1.9635555555555555 0 -3.5555555555555554 -1.5919999999999999 -3.5555555555555554 -3.5555555555555554v-5.333333333333333h9.777777777777777v8.88888888888889z" stroke-width="0.8889"></path>
  <path fill="#003580" d="M16 4.444444444444445h-6.222222222222221v8.88888888888889H0v5.333333333333333h9.777777777777777v8.88888888888889h6.222222222222221V18.666666666666664h16v-5.333333333333333H16z" stroke-width="0.8889"></path>
</svg>