<svg xmlns="http://www.w3.org/2000/svg" viewBox="0 0 32 32" id="Flag-Faroe-Islands--Streamline-Twemoji" height="32" width="32">
  <desc>
    Flag Faroe Islands Streamline Emoji: https://streamlinehq.com
  </desc>
  <path fill="#eeeeee" d="M8.394666666666668 4.444444444444445H3.5555555555555554C1.5919999999999999 4.444444444444445 0 6.036444444444444 0 8v4.888888888888888h8.394666666666668V4.444444444444445zM32 12.888888888888888V8c0 -1.9635555555555555 -1.5919999999999999 -3.5555555555555554 -3.5555555555555554 -3.5555555555555554H14.666666666666666v8.444444444444445H32z" stroke-width="0.8889"></path>
  <path fill="#0065bd" d="M32 14.222222222222221v-1.3333333333333333H14.666666666666666V4.444444444444445H13.333333333333332v9.777777777777777zM9.777777777777777 4.444444444444445H8.394666666666668v8.444444444444445H0V14.222222222222221h9.777777777777777z" stroke-width="0.8889"></path>
  <path fill="#eeeeee" d="M0 19.11111111111111V24c0 1.9635555555555555 1.5919999999999999 3.5555555555555554 3.5555555555555554 3.5555555555555554h4.8391111111111105v-8.444444444444445H0zm14.666666666666666 0V27.555555555555554H28.444444444444443c1.9635555555555555 0 3.5555555555555554 -1.5919999999999999 3.5555555555555554 -3.5555555555555554v-4.888888888888888H14.666666666666666z" stroke-width="0.8889"></path>
  <path fill="#ed2939" d="M13.333333333333332 14.222222222222221V4.444444444444445h-3.5555555555555554v9.777777777777777H0v3.5555555555555554h9.777777777777777v9.777777777777777h3.5555555555555554V17.77777777777778h18.666666666666664v-3.5555555555555554z" stroke-width="0.8889"></path>
  <path fill="#0065bd" d="M13.333333333333332 17.77777777777778v9.777777777777777h1.3333333333333333v-8.444444444444445H32V17.77777777777778zm-3.5555555555555554 0H0v1.3333333333333333h8.394666666666668V27.555555555555554H9.777777777777777z" stroke-width="0.8889"></path>
</svg>