<svg xmlns="http://www.w3.org/2000/svg" viewBox="0 0 32 32" id="Flag-Norway--Streamline-Twemoji" height="32" width="32">
  <desc>
    Flag Norway Streamline Emoji: https://streamlinehq.com
  </desc>
  <path fill="#ef2b2d" d="M8.88888888888889 4.444444444444445H3.5555555555555554C1.5919999999999999 4.444444444444445 0 6.036444444444444 0 8v5.333333333333333h8.88888888888889V4.444444444444445zm19.555555555555554 0H14.222222222222221v8.88888888888889h17.77777777777778V8c0 -1.9635555555555555 -1.5919999999999999 -3.5555555555555554 -3.5555555555555554 -3.5555555555555554zM8.88888888888889 27.555555555555554H3.5555555555555554c-1.9635555555555555 0 -3.5555555555555554 -1.5919999999999999 -3.5555555555555554 -3.5555555555555554v-5.333333333333333h8.88888888888889v8.88888888888889zm19.555555555555554 0H14.222222222222221V18.666666666666664h17.77777777777778v5.333333333333333c0 1.9635555555555555 -1.5919999999999999 3.5555555555555554 -3.5555555555555554 3.5555555555555554z" stroke-width="0.8889"></path>
  <path fill="#002868" d="M12.888888888888888 4.444444444444445h-2.6168888888888886l-0.022222222222222223 10.222222222222221H0v2.6666666666666665h10.244444444444444L10.222222222222221 27.555555555555554h2.6666666666666665V17.333333333333332H32v-2.6666666666666665H12.888888888888888z" stroke-width="0.8889"></path>
  <path fill="#eeeeee" d="M12.888888888888888 27.555555555555554H14.222222222222221V18.666666666666664h17.77777777777778v-1.3333333333333333H12.888888888888888zM14.222222222222221 4.444444444444445h-1.3333333333333333v10.222222222222221H32V13.333333333333332H14.222222222222221zm-4 0H8.88888888888889v8.88888888888889H0v1.3333333333333333h10.222222222222221zM0 17.333333333333332V18.666666666666664h8.88888888888889v8.88888888888889h1.3333333333333333V17.333333333333332z" stroke-width="0.8889"></path>
</svg>