<svg xmlns="http://www.w3.org/2000/svg" viewBox="0 0 32 32" id="Flag-Senegal--Streamline-Twemoji" height="32" width="32">
  <desc>
    Flag Senegal Streamline Emoji: https://streamlinehq.com
  </desc>
  <path fill="#00853f" d="M3.5555555555555554 4.444444444444445C1.5919999999999999 4.444444444444445 0 6.036444444444444 0 8v16c0 1.9635555555555555 1.5919999999999999 3.5555555555555554 3.5555555555555554 3.5555555555555554h7.111111111111111V4.444444444444445H3.5555555555555554z" stroke-width="0.8889"></path>
  <path fill="#fdef42" d="M10.666666666666666 4.444444444444445h10.666666666666666v23.11111111111111H10.666666666666666z" stroke-width="0.8889"></path>
  <path fill="#e31b23" d="M28.444444444444443 4.444444444444445h-7.111111111111111v23.11111111111111h7.111111111111111c1.9635555555555555 0 3.5555555555555554 -1.5919999999999999 3.5555555555555554 -3.5555555555555554V8c0 -1.9635555555555555 -1.5919999999999999 -3.5555555555555554 -3.5555555555555554 -3.5555555555555554z" stroke-width="0.8889"></path>
  <path fill="#00853f" d="M16.772444444444442 14.821333333333332 16 12.444444444444443l-0.7724444444444444 2.376888888888889H12.72888888888889l2.021333333333333 1.4684444444444442L13.978666666666667 18.666666666666664 16 17.19822222222222 18.021333333333335 18.666666666666664l-0.7715555555555556 -2.376888888888889 2.021333333333333 -1.4684444444444442z" stroke-width="0.8889"></path>
</svg>