<svg xmlns="http://www.w3.org/2000/svg" viewBox="0 0 32 32" id="Flag-Venezuela--Streamline-Twemoji" height="32" width="32">
  <desc>
    Flag Venezuela Streamline Emoji: https://streamlinehq.com
  </desc>
  <path fill="#cf142b" d="M0 24c0 1.9635555555555555 1.5919999999999999 3.5555555555555554 3.5555555555555554 3.5555555555555554h24.888888888888886c1.9635555555555555 0 3.5555555555555554 -1.5919999999999999 3.5555555555555554 -3.5555555555555554v-3.5555555555555554H0v3.5555555555555554z" stroke-width="0.8889"></path>
  <path fill="#00247d" d="M0 20.444444444444443h32V11.555555555555555H0v8.88888888888889zm22.50311111111111 -3.155555555555555 0.2391111111111111 0.6577777777777777 0.6995555555555556 -0.023999999999999997 -0.5511111111111111 0.43111111111111106 0.2391111111111111 0.6577777777777777 -0.5804444444444444 -0.3911111111111111 -0.5511111111111111 0.43111111111111106 0.1928888888888889 -0.6728888888888889 -0.5804444444444444 -0.3911111111111111 0.6995555555555556 -0.023999999999999997 0.1928888888888889 -0.6746666666666666zM21.42222222222222 15.808888888888887l0.6488888888888888 -0.2622222222222222 -0.37066666666666664 0.5928888888888889 0.4497777777777778 0.5359999999999999 -0.6791111111111111 -0.1688888888888889 -0.37066666666666664 0.5928888888888889 -0.048888888888888885 -0.6977777777777777 -0.6791111111111111 -0.1688888888888889 0.6488888888888888 -0.2622222222222222 -0.048888888888888885 -0.6977777777777777 0.4497777777777778 0.5359999999999999zm-2.5777777777777775 -1.9066666666666665 0.6062222222222222 0.3502222222222222 0.5199999999999999 -0.46844444444444444 -0.14577777777777778 0.6844444444444444 0.6062222222222222 0.3502222222222222 -0.696 0.07288888888888889 -0.14577777777777778 0.6844444444444444 -0.28444444444444444 -0.6391111111111111 -0.696 0.07288888888888889 0.5199999999999999 -0.46844444444444444 -0.28444444444444444 -0.6391111111111111zm-1.7795555555555553 -0.4382222222222222 0.32888888888888884 -0.6177777777777776 0.09777777777777777 0.6924444444444444 0.6888888888888889 0.12177777777777778 -0.6284444444444444 0.30666666666666664 0.09777777777777777 0.6924444444444444 -0.4862222222222222 -0.5031111111111111 -0.6302222222222221 0.30666666666666664 0.32888888888888884 -0.6177777777777776 -0.4862222222222222 -0.5031111111111111 0.6888888888888889 0.12177777777777778zm-2.5555555555555554 0.07466666666666667 0.09777777777777777 -0.6924444444444444 0.32888888888888884 0.6177777777777776 0.6888888888888889 -0.12177777777777778 -0.4862222222222222 0.5031111111111111 0.32888888888888884 0.6177777777777776 -0.6284444444444444 -0.30666666666666664 -0.4862222222222222 0.5031111111111111 0.09777777777777777 -0.6924444444444444 -0.6284444444444444 -0.30666666666666664 0.6871111111111111 -0.12177777777777778zm-2.479111111111111 0.24533333333333335 0.5199999999999999 0.46844444444444444 0.6053333333333334 -0.3502222222222222 -0.28444444444444444 0.6391111111111111 0.5199999999999999 0.46844444444444444 -0.696 -0.07288888888888889 -0.28444444444444444 0.6391111111111111 -0.14577777777777778 -0.6844444444444444 -0.696 -0.07288888888888889 0.6062222222222222 -0.3502222222222222 -0.14488888888888887 -0.6844444444444444zM9.928888888888888 15.546666666666665l0.6488888888888888 0.2622222222222222 0.4497777777777778 -0.5359999999999999 -0.048888888888888885 0.6977777777777777 0.6488888888888888 0.2622222222222222 -0.6791111111111111 0.1688888888888889 -0.048888888888888885 0.6977777777777777 -0.37066666666666664 -0.5928888888888889 -0.6791111111111111 0.1688888888888889 0.4497777777777778 -0.5359999999999999 -0.37066666666666664 -0.5928888888888889zm-0.6719999999999999 2.399111111111111 0.2391111111111111 -0.6577777777777777 0.1928888888888889 0.6728888888888889 0.6995555555555556 0.023999999999999997 -0.5804444444444444 0.3911111111111111 0.1928888888888889 0.6728888888888889 -0.5511111111111111 -0.43111111111111106 -0.5804444444444444 0.3911111111111111 0.2391111111111111 -0.6577777777777777 -0.5511111111111111 -0.43111111111111106 0.6995555555555556 0.025777777777777778z" stroke-width="0.8889"></path>
  <path fill="#ffcc00" d="M28.444444444444443 4.444444444444445H3.5555555555555554C1.5919999999999999 4.444444444444445 0 6.036444444444444 0 8v3.5555555555555554h32V8c0 -1.9635555555555555 -1.5919999999999999 -3.5555555555555554 -3.5555555555555554 -3.5555555555555554z" stroke-width="0.8889"></path>
  <path fill="#ffffff" d="m16.533333333333335 14.463111111111111 0.6284444444444444 -0.30666666666666664 0.4862222222222222 0.5031111111111111 -0.09777777777777777 -0.6924444444444444 0.6293333333333333 -0.30666666666666664 -0.6888888888888889 -0.12177777777777778 -0.09777777777777777 -0.6924444444444444 -0.32799999999999996 0.6177777777777776 -0.6897777777777777 -0.12177777777777778 0.4862222222222222 0.5031111111111111zm2.771555555555555 0.4728888888888889 0.28444444444444444 0.6391111111111111 0.14488888888888887 -0.6835555555555556 0.696 -0.07377777777777778 -0.6053333333333334 -0.34933333333333333 0.14488888888888887 -0.6844444444444444 -0.5199999999999999 0.46755555555555556 -0.6053333333333334 -0.34933333333333333 0.28444444444444444 0.6391111111111111 -0.5199999999999999 0.46844444444444444zm1.0675555555555556 1.296888888888889 0.6791111111111111 0.1688888888888889 0.048888888888888885 0.6977777777777777 0.37066666666666664 -0.5928888888888889 0.6782222222222222 0.1688888888888889 -0.4497777777777778 -0.5359999999999999 0.37155555555555553 -0.5928888888888889 -0.6488888888888888 0.2622222222222222 -0.4497777777777778 -0.5359999999999999 0.048888888888888885 0.6977777777777777zm1.8186666666666664 2.1439999999999997 -0.1928888888888889 0.6719999999999999 0.5519999999999999 -0.4302222222222222 0.5795555555555555 0.3911111111111111 -0.2391111111111111 -0.6577777777777777 0.5511111111111111 -0.4302222222222222 -0.6986666666666667 0.023999999999999997 -0.24 -0.6568888888888889 -0.1928888888888889 0.6719999999999999 -0.6986666666666667 0.024888888888888887zm-7.839111111111111 -3.7173333333333334 0.4862222222222222 -0.5031111111111111 0.6284444444444444 0.30666666666666664 -0.32799999999999996 -0.6177777777777776 0.4862222222222222 -0.5031111111111111 -0.6897777777777777 0.12177777777777778 -0.32799999999999996 -0.6177777777777776 -0.09777777777777777 0.6924444444444444 -0.6888888888888889 0.12177777777777778 0.6293333333333333 0.30666666666666664zm-2.086222222222222 0.23199999999999998 0.14488888888888887 0.6835555555555556 0.28444444444444444 -0.6391111111111111 0.696 0.07377777777777778 -0.5199999999999999 -0.46844444444444444 0.28444444444444444 -0.6391111111111111 -0.6053333333333334 0.34933333333333333 -0.5199999999999999 -0.46755555555555556 0.14488888888888887 0.6844444444444444 -0.6053333333333334 0.34933333333333333zm-1.7368888888888887 1.615111111111111 0.37066666666666664 0.5928888888888889 0.048888888888888885 -0.6977777777777777 0.6791111111111111 -0.1688888888888889 -0.6488888888888888 -0.2622222222222222 0.048888888888888885 -0.6977777777777777 -0.4497777777777778 0.5359999999999999 -0.6488888888888888 -0.2622222222222222 0.37155555555555553 0.5928888888888889 -0.4497777777777778 0.5359999999999999zm-1.6586666666666667 2.5031111111111106 0.5795555555555555 -0.3911111111111111 0.5519999999999999 0.4302222222222222 -0.1928888888888889 -0.6719999999999999 0.5795555555555555 -0.3911111111111111 -0.6986666666666667 -0.024888888888888887 -0.1928888888888889 -0.6719999999999999 -0.24 0.6568888888888889 -0.6986666666666667 -0.023999999999999997 0.5511111111111111 0.4302222222222222z" stroke-width="0.8889"></path>
</svg>