<svg xmlns="http://www.w3.org/2000/svg" viewBox="0 0 32 32" id="Flag-Moldova--Streamline-Twemoji" height="32" width="32">
  <desc>
    Flag Moldova Streamline Emoji: https://streamlinehq.com
  </desc>
  <path fill="#dd2e44" d="M28.444444444444443 4.444444444444445h-7.111111111111111v23.11111111111111h7.111111111111111c1.9635555555555555 0 3.5555555555555554 -1.5919999999999999 3.5555555555555554 -3.5555555555555554V8c0 -1.9635555555555555 -1.5919999999999999 -3.5555555555555554 -3.5555555555555554 -3.5555555555555554z" stroke-width="0.8889"></path>
  <path fill="#265fb5" d="M3.5555555555555554 4.444444444444445C1.5919999999999999 4.444444444444445 0 6.036444444444444 0 8v16c0 1.9635555555555555 1.5919999999999999 3.5555555555555554 3.5555555555555554 3.5555555555555554h7.111111111111111V4.444444444444445H3.5555555555555554z" stroke-width="0.8889"></path>
  <path fill="#ffcc4d" d="M10.666666666666666 4.444444444444445h10.666666666666666v23.11111111111111H10.666666666666666z" stroke-width="0.8889"></path>
  <path fill="#dd2e44" d="M14.222222222222221 13.333333333333332h3.5555555555555554v2.6666666666666665h-3.5555555555555554z" stroke-width="0.8889"></path>
  <path fill="#226699" d="M14.222222222222221 16v1.7777777777777777l1.7777777777777777 0.8888888888888888 1.7777777777777777 -0.8888888888888888v-1.7777777777777777z" stroke-width="0.8889"></path>
  <path fill="#a0724a" d="M14.222222222222221 9.777777777777777v0.8888888888888888h0.8888888888888888v1.7777777777777777h1.7777777777777777v-2.6666666666666665zm2.6666666666666665 8.88888888888889 -0.8888888888888888 0.5555555555555556L15.11111111111111 18.666666666666664l-0.8888888888888888 2.6666666666666665 1.7777777777777777 0.8888888888888888 1.7777777777777777 -0.8888888888888888zm-3.5555555555555554 -7.111111111111111 -0.8888888888888888 -0.8888888888888888 -0.8888888888888888 0.8888888888888888v8.88888888888889l1.7777777777777777 -1.7777777777777777v-6.222222222222221h0.8888888888888888zm6.222222222222221 -0.8888888888888888 -0.8888888888888888 0.8888888888888888 -0.8888888888888888 0.8888888888888888h0.8888888888888888v6.222222222222221l1.7777777777777777 1.7777777777777777V11.555555555555555z" stroke-width="0.8889"></path>
  <path fill="#ffcc4d" d="M14.430222222222223 15.639111111111111h0.472V16h-0.472zm2.6666666666666665 0h0.472V16h-0.472z" stroke-width="0.8889"></path>
  <path fill="#77b255" d="M13.899555555555555 20.215999999999998c-0.09422222222222222 0.05511111111111111 -0.23377777777777778 -0.008888888888888889 -0.31111111111111106 -0.14133333333333334l-1.984 -3.436444444444444c-0.07644444444444444 -0.13333333333333333 -0.06222222222222223 -0.2853333333333333 0.032888888888888884 -0.34044444444444444l0.12088888888888889 -0.06933333333333333c0.09422222222222222 -0.05511111111111111 0.23377777777777778 0.008888888888888889 0.3102222222222222 0.14133333333333334l1.984 3.437333333333333c0.07733333333333332 0.13244444444444442 0.06222222222222223 0.28444444444444444 -0.031999999999999994 0.33955555555555555l-0.12088888888888889 0.06933333333333333z" stroke-width="0.8889"></path>
  <path fill="#ffcc4d" d="M20.281777777777776 16.349333333333334c0.0951111111111111 0.05422222222222222 0.1111111111111111 0.20444444444444443 0.034666666666666665 0.3351111111111111l-1.9475555555555553 3.376c-0.07644444444444444 0.13066666666666665 -0.21333333333333332 0.19199999999999998 -0.3093333333333333 0.13777777777777778l-0.12 -0.06933333333333333c-0.09422222222222222 -0.05511111111111111 -0.11022222222222222 -0.20444444444444443 -0.034666666666666665 -0.33599999999999997l1.9484444444444444 -3.376c0.07555555555555556 -0.12977777777777777 0.21333333333333332 -0.1928888888888889 0.3084444444444444 -0.1368888888888889l0.12 0.06933333333333333z" stroke-width="0.8889"></path>
  <path fill="#dd2e44" d="m14.222222222222221 18.666666666666664 -0.8888888888888888 0.8888888888888888v0.8888888888888888l0.8888888888888888 -0.8888888888888888zm3.5555555555555554 0v0.8888888888888888l0.8888888888888888 0.8888888888888888v-0.8888888888888888z" stroke-width="0.8889"></path>
  <path fill="#ffcc4d" d="m16 15.11111111111111 -0.8888888888888888 -0.8888888888888888v2.6293333333333333L16 17.77777777777778l0.8888888888888888 -0.9262222222222222V14.222222222222221z" stroke-width="0.8889"></path>
</svg>