<svg xmlns="http://www.w3.org/2000/svg" viewBox="0 0 32 32" id="Flag-Sweden--Streamline-Twemoji" height="32" width="32">
  <desc>
    Flag Sweden Streamline Emoji: https://streamlinehq.com
  </desc>
  <path fill="#006aa7" d="M13.777777777777777 27.555555555555554H28.444444444444443c1.9635555555555555 0 3.5555555555555554 -1.5919999999999999 3.5555555555555554 -4v-5.333333333333333H13.777777777777777V27.555555555555554zM28.444444444444443 4.444444444444445H13.777777777777777v9.333333333333332H32V8c0 -1.9635555555555555 -1.5919999999999999 -3.5555555555555554 -3.5555555555555554 -3.5555555555555554zM9.333333333333332 4.444444444444445H3.5555555555555554C1.5928888888888888 4.444444444444445 0.0017777777777777776 6.034666666666666 0 7.997333333333333V13.777777777777777h9.333333333333332V4.444444444444445zM0 18.22222222222222v5.336888888888888C0.0017777777777777776 25.96533333333333 1.5928888888888888 27.555555555555554 3.5555555555555554 27.555555555555554h5.777777777777778V18.22222222222222H0z" stroke-width="0.8889"></path>
  <path fill="#fecc00" d="M13.777777777777777 4.444444444444445h-4.444444444444445v9.333333333333332H0v4.444444444444445h9.333333333333332V27.555555555555554h4.444444444444445V18.22222222222222H32v-4.444444444444445H13.777777777777777z" stroke-width="0.8889"></path>
</svg>