<svg xmlns="http://www.w3.org/2000/svg" viewBox="0 0 32 32" id="Flag-Philippines--Streamline-Twemoji" height="32" width="32">
  <desc>
    Flag Philippines Streamline Emoji: https://streamlinehq.com
  </desc>
  <path fill="#ce1126" d="M32 24c0 1.9635555555555555 -1.5919999999999999 3.5555555555555554 -3.5555555555555554 3.5555555555555554H3.5555555555555554c-1.9635555555555555 0 -3.5555555555555554 -1.5919999999999999 -3.5555555555555554 -3.5555555555555554V8c0 -1.9635555555555555 1.5919999999999999 -3.5555555555555554 3.5555555555555554 -3.5555555555555554h24.888888888888886c1.9635555555555555 0 3.5555555555555554 1.5919999999999999 3.5555555555555554 3.5555555555555554v16z" stroke-width="0.8889"></path>
  <path fill="#0038a8" d="M28.444444444444443 4.444444444444445H3.5555555555555554C1.5919999999999999 4.444444444444445 0 6.036444444444444 0 8v8h32V8c0 -1.9635555555555555 -1.5919999999999999 -3.5555555555555554 -3.5555555555555554 -3.5555555555555554z" stroke-width="0.8889"></path>
  <path fill="#eeeeee" d="m1.167111111111111 26.617777777777775 15.749333333333333 -10.560888888888888L1.1822222222222223 5.369777777777778C0.4613333333333333 6.020444444444444 0 6.9528888888888885 0 8v16c0 1.040888888888889 0.4551111111111111 1.968 1.167111111111111 2.6177777777777775z" stroke-width="0.8889"></path>
  <path fill="#fcd116" d="m14.284444444444444 14.684444444444443 0.03822222222222222 1.024888888888889 0.991111111111111 0.2613333333333333 -0.9626666666666666 0.352 0.057777777777777775 1.0239999999999998 -0.6328888888888888 -0.8071111111111111 -0.9555555555555555 0.37066666666666664 0.5715555555555555 -0.8506666666666666 -0.6488888888888888 -0.7937777777777777 0.9866666666666667 0.28088888888888885zM1.4248888888888889 7.095111111111111l0.7697777777777778 0.6782222222222222 0.8711111111111111 -0.5395555555555556 -0.4071111111111111 0.9413333333333332 0.7822222222222222 0.6622222222222222 -1.0204444444444443 -0.09599999999999999 -0.3884444444444444 0.9475555555555556 -0.2231111111111111 -1 -1.023111111111111 -0.07644444444444444 0.8826666666666666 -0.5208888888888888zm0.38311111111111107 15.300444444444445 0.5102222222222221 0.8888888888888888 0.9991111111111112 -0.22844444444444445 -0.688 0.7591111111111111 0.5279999999999999 0.8791111111111111 -0.9351111111111111 -0.4195555555555555 -0.6728888888888889 0.7742222222222221 0.10933333333333332 -1.0204444444444443 -0.943111111111111 -0.39999999999999997 1.0026666666666666 -0.21155555555555552zM8.88888888888889 16c0 1.472888888888889 -1.1937777777777776 2.6666666666666665 -2.6666666666666665 2.6666666666666665s-2.6666666666666665 -1.1946666666666668 -2.6666666666666665 -2.6666666666666665c0 -1.472888888888889 1.1937777777777776 -2.6666666666666665 2.6666666666666665 -2.6666666666666665s2.6666666666666665 1.1937777777777776 2.6666666666666665 2.6666666666666665z" stroke-width="0.8889"></path>
  <path d="m6.75111111111111 11.197333333333333 -0.13955555555555554 2.3537777777777777 -0.21688888888888888 -0.031999999999999994 0.07555555555555556 -2.732444444444444L6.222222222222221 10.624888888888888l-0.248 0.16177777777777777 0.07555555555555556 2.732444444444444 -0.21688888888888888 0.031999999999999994 -0.13955555555555554 -2.3537777777777777 -0.31377777777777777 0.19377777777777777 0.29244444444444445 2.397333333333333h1.1004444444444443l0.29244444444444445 -2.397333333333333zm-1.0577777777777777 9.605333333333332 0.13955555555555554 -2.3537777777777777 0.21688888888888888 0.031999999999999994 -0.07644444444444444 2.732444444444444 0.2488888888888889 0.16177777777777777 0.248 -0.16177777777777777 -0.07555555555555556 -2.732444444444444 0.21688888888888888 -0.031999999999999994 0.13955555555555554 2.3537777777777777 0.31377777777777777 -0.19377777777777777 -0.29244444444444445 -2.398222222222222H5.672l-0.29244444444444445 2.398222222222222zm-3.241777777777777 -1.7813333333333332 1.7644444444444445 -1.5635555555555554 0.12977777777777777 0.17422222222222222 -1.984888888888889 1.878222222222222 0.060444444444444446 0.2906666666666667 0.2906666666666667 0.06133333333333334 1.878222222222222 -1.9866666666666664 0.1751111111111111 0.13066666666666665L3.1999999999999997 19.770666666666667l0.3591111111111111 0.08355555555555555 1.488888888888889 -1.901333333333333 -0.3893333333333333 -0.3893333333333333 -0.3893333333333333 -0.3893333333333333 -1.901333333333333 1.488888888888889zm7.541333333333333 -6.043555555555556 -1.7644444444444445 1.5653333333333332 -0.12977777777777777 -0.1751111111111111 1.984888888888889 -1.878222222222222 -0.060444444444444446 -0.2906666666666667 -0.2906666666666667 -0.06133333333333334 -1.878222222222222 1.9857777777777776 -0.1751111111111111 -0.12977777777777777 1.5653333333333332 -1.7644444444444445 -0.3591111111111111 -0.08355555555555555 -1.488888888888889 1.901333333333333 0.3893333333333333 0.3893333333333333 0.3893333333333333 0.3893333333333333 1.901333333333333 -1.488888888888889zm-8.573333333333332 2.493333333333333 2.3546666666666667 0.13955555555555554 -0.032888888888888884 0.21688888888888888 -2.732444444444444 -0.07644444444444444 -0.16177777777777777 0.2488888888888889 0.16177777777777777 0.248 2.732444444444444 -0.07555555555555556 0.032888888888888884 0.21688888888888888 -2.3546666666666667 0.13955555555555554 0.19377777777777777 0.31377777777777777 2.397333333333333 -0.29244444444444445V15.448888888888888l-2.397333333333333 -0.29155555555555557zm9.605333333333332 1.0577777777777777 -2.3546666666666667 -0.13955555555555554 0.032888888888888884 -0.21688888888888888 2.732444444444444 0.07555555555555556 0.16177777777777777 -0.248 -0.16177777777777777 -0.2488888888888889 -2.732444444444444 0.07644444444444444 -0.032888888888888884 -0.21688888888888888 2.3546666666666667 -0.13955555555555554 -0.19377777777777777 -0.31377777777777777 -2.398222222222222 0.29155555555555557v1.1013333333333333l2.398222222222222 0.29244444444444445zM3.1999999999999997 12.229333333333331l1.5653333333333332 1.7644444444444445 -0.1751111111111111 0.12977777777777777 -1.878222222222222 -1.9857777777777776 -0.2906666666666667 0.06133333333333334 -0.060444444444444446 0.2906666666666667 1.984888888888889 1.878222222222222 -0.12977777777777777 0.1751111111111111L2.4515555555555553 12.977777777777776l-0.08355555555555555 0.3591111111111111 1.901333333333333 1.488888888888889 0.3893333333333333 -0.3893333333333333 0.3893333333333333 -0.3893333333333333 -1.488888888888889 -1.901333333333333zm6.044444444444444 7.541333333333333 -1.5653333333333332 -1.7644444444444445 0.1751111111111111 -0.13066666666666665 1.878222222222222 1.9866666666666664 0.2906666666666667 -0.06133333333333334 0.060444444444444446 -0.2906666666666667 -1.984888888888889 -1.878222222222222 0.12977777777777777 -0.17422222222222222 1.7644444444444445 1.5635555555555554 0.08355555555555555 -0.3582222222222222 -1.901333333333333 -1.488888888888889 -0.3893333333333333 0.3893333333333333 -0.3893333333333333 0.3893333333333333 1.488888888888889 1.901333333333333z" fill="#fcd116" stroke-width="0.8889"></path>
</svg>